<svg width="130" height="43" viewBox="0 0 130 43" fill="none" xmlns="http://www.w3.org/2000/svg">
<path d="M30.3486 22.7326C30.3293 19.1821 31.9301 16.5023 35.1704 14.5287C33.3574 11.9263 30.6186 10.4945 27.0022 10.214C23.5787 9.94307 19.837 12.2165 18.4676 12.2165C17.021 12.2165 13.7036 10.3107 11.0998 10.3107C5.71868 10.3978 0 14.6158 0 23.197C0 25.7317 0.462895 28.3502 1.38869 31.0526C2.62307 34.6031 7.07844 43.31 11.7267 43.1649C14.1569 43.1068 15.8734 41.4332 19.0366 41.4332C22.1032 41.4332 23.6944 43.1649 26.4043 43.1649C31.0911 43.0972 35.1222 35.1835 36.2987 31.6234C30.011 28.6533 30.3486 22.9164 30.3486 22.7326ZM24.8903 6.84727C27.523 3.71277 27.2819 0.858828 27.2047 -0.166656C24.8806 -0.0312152 22.19 1.41994 20.6567 3.2097C18.9691 5.12523 17.9758 7.49545 18.1879 10.1656C20.7049 10.3591 23.0001 9.0627 24.8903 6.84727Z" fill="black"/>
<path d="M51.0774 28.2991L48.5508 35.9892H45.303L53.5725 11.5501H57.3624L65.6634 35.9892H62.3051L59.7048 28.2991H51.0774ZM59.0574 25.8309L56.6781 18.7962C56.1359 17.2 55.778 15.7519 55.4148 14.3354H55.3464C54.9832 15.7836 54.5884 17.2687 54.1199 18.7592L51.7407 25.8256L59.0574 25.8309ZM68.1269 24.1661C68.1269 21.9198 68.0585 20.1017 67.9795 18.4368H70.8325L70.9799 21.4494H71.0483C72.3484 19.3089 74.4066 18.0404 77.2596 18.0404C81.4864 18.0404 84.6605 21.6291 84.6605 26.962C84.6605 33.2726 80.8337 36.3856 76.7174 36.3856C74.4066 36.3856 72.3853 35.3709 71.3378 33.632H71.2694V43.1667H68.1269V24.1661ZM71.2641 28.8435C71.2641 29.3192 71.3325 29.7473 71.4115 30.149C71.9905 32.3583 73.9013 33.8857 76.1805 33.8857C79.5388 33.8857 81.4917 31.1321 81.4917 27.1047C81.4917 23.5847 79.6493 20.5826 76.291 20.5826C74.1276 20.5826 72.1063 22.1418 71.4852 24.536C71.3746 24.9324 71.2694 25.4081 71.2694 25.8415L71.2641 28.8435ZM87.9451 24.1661C87.9451 21.9198 87.8767 20.1017 87.7977 18.4368H90.6507L90.7981 21.4494H90.8665C92.1667 19.3089 94.2248 18.0404 97.0778 18.0404C101.305 18.0404 104.479 21.6291 104.479 26.962C104.479 33.2726 100.652 36.3856 96.5356 36.3856C94.2248 36.3856 92.2035 35.3709 91.156 33.632H91.0876V43.1667H87.9451V24.1661ZM91.0876 28.8435C91.0876 29.3192 91.156 29.7473 91.235 30.149C91.814 32.3583 93.7248 33.8857 96.004 33.8857C99.3623 33.8857 101.315 31.1321 101.315 27.1047C101.315 23.5847 99.4728 20.5826 96.1145 20.5826C93.9511 20.5826 91.9298 22.1418 91.3087 24.536C91.1981 24.9324 91.0928 25.4081 91.0928 25.8415L91.0876 28.8435ZM107.769 10.2446H110.948V35.984H107.769V10.2446ZM117.338 27.7918C117.407 32.1046 120.154 33.8857 123.328 33.8857C125.602 33.8857 126.976 33.4893 128.166 32.9819L128.708 35.2652C127.592 35.7725 125.676 36.3539 122.897 36.3539C117.517 36.3539 114.301 32.8022 114.301 27.5064C114.301 22.2105 117.407 18.0404 122.497 18.0404C128.203 18.0404 129.719 23.0773 129.719 26.3066C129.719 26.962 129.65 27.4641 129.608 27.7918H117.338ZM126.655 25.5085C126.692 23.479 125.823 20.3236 122.249 20.3236C119.033 20.3236 117.628 23.2993 117.375 25.5085H126.655Z" fill="#808080"/>
</svg>
