<svg width="793" height="334" viewBox="0 0 793 334" fill="none" xmlns="http://www.w3.org/2000/svg">
<path d="M0 30C0 13.4315 13.4315 0 30 0H536H655.41C660.991 0 666.427 1.77948 670.927 5.0799V5.0799C676.126 8.89261 682.547 10.6577 688.965 10.0385L752.387 3.91878C772.532 1.97502 788.782 20.1262 784.631 39.9338L778.467 69.3437C776.608 78.2109 779.214 87.4259 785.44 94.0076V94.0076C790.295 99.14 793 105.937 793 113.002V218V304C793 320.569 779.569 334 763 334H571.5H284H30C13.4315 334 0 320.569 0 304V144V30Z" fill="#00E56F"/>
</svg>
