<svg width="180" height="23" viewBox="0 0 180 23" fill="none" xmlns="http://www.w3.org/2000/svg">
<g clip-path="url(#clip0_1_277)">
<path d="M154.111 11.8775H161.983L158.01 5.64402L154.111 11.8775ZM141.114 21.648V18.9361L143.858 18.6242C144.807 18.504 145.209 17.6355 145.327 17.4369L152.166 6.31814C152.722 5.44402 152.178 4.6762 151.463 4.59648L147.87 4.17411V1.43429H163.457C164.332 1.43429 164.887 2.02869 165.244 2.54476L174.348 16.4453C175.065 17.5543 175.621 18.4298 176.535 18.5501L179.4 18.8704V21.648H161.866V18.9082L164.093 18.6298C165.167 18.5124 166.042 18.034 165.167 16.7236L164.332 15.4509H151.884L150.931 17.0019C150.337 17.9529 150.931 18.5124 151.846 18.6298L154.073 18.9082V21.648H141.114Z" fill="#808080"/>
<path d="M126.404 17.753H121.236V5.28469H126.404C131.333 5.28469 133.402 6.43852 133.402 11.5196C133.402 16.644 131.333 17.753 126.404 17.753ZM129.503 1.4344H109.456L109.452 4.17422L111.964 4.43295C112.905 4.57002 113.284 5.24553 113.284 6.15601V17.0398C113.284 17.7936 112.965 18.5125 112.132 18.6299L109.44 18.9796V21.6397L129.503 21.6481C138.728 21.6481 142.704 17.16 142.704 11.244C142.704 5.92244 138.728 1.4344 129.503 1.4344Z" fill="#808080"/>
<path d="M0.600006 21.6484H16.8188V18.9463L14.0394 18.6303C13.4009 18.5505 12.7652 18.1547 12.7652 16.7995V13.5464H25.2496V16.6443C25.2496 17.5533 25.0899 18.4303 24.0174 18.5505L21.1931 18.8708V21.6484H37.4147V18.8708L34.5513 18.5505C33.9968 18.4736 33.3597 18.0345 33.3597 16.882V6.35771C33.3597 5.285 33.7559 4.57032 34.5905 4.492L37.4147 4.17452V1.4347H21.1931V4.13536L24.0174 4.492C24.9709 4.61088 25.2496 5.36612 25.2496 6.35771V9.49473H12.7652V6.31855C12.7652 5.12696 13.2426 4.57032 14.0772 4.492L16.8188 4.17452V1.4347H0.637812V4.17452L3.34305 4.492C4.41842 4.61088 4.69426 5.40528 4.65506 6.43883V16.682C4.65506 17.8345 4.33721 18.5128 3.30384 18.6303L0.600006 18.9463V21.6484Z" fill="#101010"/>
<path d="M54.7494 4.5295C50.1398 4.5295 47.5144 6.23857 47.5144 11.479C47.5144 16.7992 50.1398 18.5125 54.7494 18.5125C59.3617 18.5125 61.9871 16.7992 61.9871 11.479C61.9871 6.23857 59.3617 4.5295 54.7494 4.5295ZM38.2127 11.4399C38.2127 5.08753 43.3417 0.638649 54.79 0.638649C66.1626 0.638649 71.2916 5.08753 71.2916 11.4399C71.2916 17.9531 66.1626 22.3614 54.79 22.3614C43.3417 22.3614 38.2127 17.9531 38.2127 11.4399Z" fill="#101010"/>
<path d="M72.1948 21.6484H85.1566V18.9463L82.3716 18.6303C81.5749 18.5505 81.0988 17.882 81.0988 16.9603V6.67519L91.8763 20.854C92.2306 21.3309 92.9069 21.6484 93.5426 21.6484H103.721V6.31855C103.721 5.59968 103.913 4.61508 104.954 4.492L107.774 4.17452V1.4347H94.8154V4.13536L97.6396 4.492C98.6366 4.61228 98.8704 5.44444 98.8704 6.39687V16.4065L88.1755 2.30742C87.7793 1.79134 87.2626 1.4347 86.5065 1.4347H72.1948V4.17452L74.8972 4.492C75.8493 4.63326 76.2092 5.11717 76.2092 6.43883V16.682C76.2092 17.8974 75.8774 18.482 74.8566 18.6303L72.1948 18.9463V21.6484Z" fill="#101010"/>
</g>
<defs>
<clipPath id="clip0_1_277">
<rect width="180" height="22.9213" fill="white" transform="translate(0 0.0393219)"/>
</clipPath>
</defs>
</svg>
